<svg xmlns="http://www.w3.org/2000/svg" viewBox="0 0 184 184" shape-rendering="crispEdges">
  <rect width="184" height="184" fill="#fff"/>
  <g fill="#111">
    <rect x="4" y="4" width="48" height="48"/>
    <rect x="12" y="12" width="32" height="32" fill="#fff"/>
    <rect x="20" y="20" width="16" height="16"/>
    <rect x="132" y="4" width="48" height="48"/>
    <rect x="140" y="12" width="32" height="32" fill="#fff"/>
    <rect x="148" y="20" width="16" height="16"/>
    <rect x="4" y="132" width="48" height="48"/>
    <rect x="12" y="140" width="32" height="32" fill="#fff"/>
    <rect x="20" y="148" width="16" height="16"/>
    <rect x="64" y="4" width="8" height="8"/><rect x="80" y="4" width="8" height="8"/><rect x="96" y="4" width="24" height="8"/>
    <rect x="56" y="20" width="16" height="8"/><rect x="88" y="20" width="8" height="8"/><rect x="112" y="20" width="8" height="8"/>
    <rect x="64" y="36" width="8" height="16"/><rect x="80" y="36" width="16" height="8"/><rect x="104" y="36" width="16" height="16"/>
    <rect x="4" y="64" width="16" height="8"/><rect x="28" y="64" width="8" height="8"/><rect x="48" y="64" width="16" height="8"/><rect x="72" y="64" width="8" height="8"/><rect x="96" y="64" width="8" height="8"/><rect x="120" y="64" width="16" height="8"/><rect x="152" y="64" width="24" height="8"/>
    <rect x="12" y="80" width="8" height="8"/><rect x="36" y="80" width="24" height="8"/><rect x="72" y="80" width="16" height="8"/><rect x="104" y="80" width="16" height="8"/><rect x="136" y="80" width="8" height="8"/><rect x="168" y="80" width="8" height="8"/>
    <rect x="4" y="96" width="8" height="16"/><rect x="20" y="96" width="16" height="8"/><rect x="52" y="96" width="16" height="8"/><rect x="88" y="96" width="8" height="16"/><rect x="112" y="96" width="8" height="8"/><rect x="128" y="96" width="16" height="8"/><rect x="160" y="96" width="16" height="8"/>
    <rect x="28" y="112" width="8" height="8"/><rect x="44" y="112" width="8" height="8"/><rect x="64" y="112" width="24" height="8"/><rect x="104" y="112" width="8" height="8"/><rect x="120" y="112" width="32" height="8"/><rect x="168" y="112" width="8" height="16"/>
    <rect x="64" y="132" width="8" height="8"/><rect x="80" y="132" width="24" height="8"/><rect x="112" y="132" width="8" height="8"/><rect x="136" y="132" width="8" height="8"/><rect x="160" y="132" width="16" height="8"/>
    <rect x="56" y="148" width="16" height="8"/><rect x="88" y="148" width="8" height="8"/><rect x="104" y="148" width="24" height="8"/><rect x="144" y="148" width="8" height="8"/><rect x="168" y="148" width="8" height="8"/>
    <rect x="64" y="164" width="8" height="16"/><rect x="80" y="164" width="16" height="8"/><rect x="112" y="164" width="8" height="16"/><rect x="128" y="164" width="24" height="8"/><rect x="160" y="164" width="20" height="16"/>
  </g>
  <rect x="66" y="66" width="52" height="52" rx="10" fill="#111"/>
  <g fill="#fff">
    <circle cx="84" cy="88" r="12"/>
    <circle cx="101" cy="92" r="13"/>
    <circle cx="80" cy="87" r="2" fill="#111"/>
    <circle cx="89" cy="87" r="2" fill="#111"/>
    <circle cx="96" cy="91" r="2" fill="#111"/>
    <circle cx="105" cy="91" r="2" fill="#111"/>
    <rect x="80" y="101" width="24" height="3"/>
  </g>
</svg>
