<svg preserveAspectRatio="none" width="100%" height="100%" overflow="visible" style="display: block;" viewBox="0 0 24 24" fill="none" xmlns="http://www.w3.org/2000/svg">
<g id="Frame">
<path id="Vector" d="M16.1008 7.8C16.3558 7.8 16.6078 7.8195 16.8568 7.848C16.1773 4.6815 12.7918 2.328 8.92784 2.328C4.60784 2.328 1.06934 5.2725 1.06934 9.012C1.06934 11.1705 2.24684 12.942 4.21484 14.3175L3.42884 16.6815L6.17534 15.3045C7.15934 15.4995 7.94834 15.699 8.92784 15.699C9.17534 15.699 9.41984 15.687 9.66284 15.669C9.50361 15.1339 9.42178 14.5788 9.41984 14.0205C9.41984 10.587 12.3673 7.8015 16.1008 7.8015V7.8ZM11.8753 5.67C12.4678 5.67 12.8593 6.06 12.8593 6.651C12.8593 7.2405 12.4678 7.635 11.8753 7.635C11.2873 7.635 10.6948 7.2405 10.6948 6.651C10.6948 6.06 11.2873 5.67 11.8753 5.67ZM6.37484 7.635C5.78684 7.635 5.19284 7.2405 5.19284 6.651C5.19284 6.06 5.78684 5.67 6.37484 5.67C6.96434 5.67 7.35584 6.06 7.35584 6.651C7.35584 7.2405 6.96584 7.635 6.37484 7.635Z" fill="var(--fill-0, black)"/>
<path id="Vector_2" d="M23.2738 13.926C23.2738 10.7835 20.1298 8.22299 16.5988 8.22299C12.8593 8.22299 9.91479 10.7835 9.91479 13.926C9.91479 17.073 12.8593 19.629 16.5988 19.629C17.3803 19.629 18.1708 19.4325 18.9568 19.2345L21.1123 20.415L20.5213 18.4515C22.0993 17.2665 23.2738 15.699 23.2738 13.926ZM14.4298 12.945C14.0398 12.945 13.6438 12.555 13.6438 12.1575C13.6438 11.7675 14.0383 11.3715 14.4298 11.3715C15.0238 11.3715 15.4138 11.766 15.4138 12.1575C15.4138 12.555 15.0238 12.945 14.4298 12.945ZM18.7528 12.945C18.3628 12.945 17.9728 12.555 17.9728 12.1575C17.9728 11.7675 18.3628 11.3715 18.7528 11.3715C19.3423 11.3715 19.7353 11.766 19.7353 12.1575C19.7353 12.555 19.3423 12.945 18.7528 12.945Z" fill="var(--fill-0, black)"/>
</g>
</svg>
