<svg preserveAspectRatio="none" width="100%" height="100%" overflow="visible" style="display: block;" viewBox="0 0 145.291 82.0189" fill="none" xmlns="http://www.w3.org/2000/svg">
<path id="Vector" d="M0 82.0189V0H116.818C125.176 0 131.582 1.87472 136.034 5.62416C140.487 9.29548 142.713 14.3728 142.713 20.8562C142.713 25.8555 141.19 29.9174 138.143 33.0419C135.097 36.1664 130.332 38.3145 123.848 39.4862V41.8296C130.957 42.4545 136.308 44.4855 139.901 47.9225C143.494 51.2813 145.291 55.6557 145.291 61.0455V82.0189H107.328V62.2172C107.328 60.8111 106.898 59.6785 106.039 58.8192C105.179 57.96 104.008 57.5304 102.524 57.5304H36.3226V82.0189H0ZM36.3226 35.2681H100.18C101.664 35.2681 102.836 34.7994 103.695 33.8621C104.555 32.9247 104.984 31.6749 104.984 30.1126C104.984 28.3942 104.515 27.1053 103.578 26.246C102.641 25.3868 101.508 24.9572 100.18 24.9572H36.3226V35.2681Z" fill="url(#paint0_linear_0_8)"/>
<defs>
<linearGradient id="paint0_linear_0_8" x1="-159.323" y1="41.0189" x2="920.677" y2="41.0189" gradientUnits="userSpaceOnUse">
<stop stop-color="#282828"/>
<stop offset="0.509615" stop-color="#444444"/>
<stop offset="1" stop-color="#282828"/>
</linearGradient>
</defs>
</svg>
