<svg preserveAspectRatio="none" width="100%" height="100%" overflow="visible" style="display: block;" viewBox="0 0 145.291 85.7683" fill="none" xmlns="http://www.w3.org/2000/svg">
<path id="Vector" d="M72.6453 85.7683C57.8038 85.7683 44.9151 84.0889 33.9792 80.73C23.1215 77.293 14.7243 72.4109 8.78772 66.0838C2.92923 59.7566 0 52.2577 0 43.5872V42.1811C0 33.4325 2.92923 25.9336 8.78772 19.6845C14.7243 13.3574 23.1215 8.51434 33.9792 5.15547C44.9151 1.71849 57.8038 0 72.6453 0C87.5649 0 100.454 1.71849 111.311 5.15547C122.169 8.51434 130.527 13.3574 136.386 19.6845C142.322 25.9336 145.291 33.4325 145.291 42.1811V43.5872C145.291 52.2577 142.322 59.7566 136.386 66.0838C130.527 72.4109 122.169 77.293 111.311 80.73C100.454 84.0889 87.5649 85.7683 72.6453 85.7683ZM72.6453 58.8192C83.3468 58.8192 91.783 57.4913 97.9539 54.8355C104.203 52.1015 107.328 48.3521 107.328 43.5872V42.1811C107.328 37.4162 104.203 33.7058 97.9539 31.05C91.783 28.316 83.3468 26.9491 72.6453 26.9491C62.0219 26.9491 53.5857 28.316 47.3366 31.05C41.0876 33.7058 37.963 37.4162 37.963 42.1811V43.5872C37.963 48.3521 41.0876 52.1015 47.3366 54.8355C53.5857 57.4913 62.0219 58.8192 72.6453 58.8192Z" fill="url(#paint0_linear_0_5)"/>
<defs>
<linearGradient id="paint0_linear_0_5" x1="-309.931" y1="42.8936" x2="770.069" y2="42.8936" gradientUnits="userSpaceOnUse">
<stop stop-color="#282828"/>
<stop offset="0.509615" stop-color="#444444"/>
<stop offset="1" stop-color="#282828"/>
</linearGradient>
</defs>
</svg>
