<svg preserveAspectRatio="none" width="100%" height="100%" overflow="visible" style="display: block;" viewBox="0 0 439.572 41" fill="none" xmlns="http://www.w3.org/2000/svg">
<g id="DESIGN">
<path id="Vector" d="M369.617 40.1038V0.896182L386.88 0.896182L422.083 22.5164V0.896182L439.572 0.896182V40.1038H422.309L387.106 18.4836V40.1038H369.617Z" fill="url(#paint0_linear_0_11)"/>
<path id="Vector_2" d="M325.123 41C320.685 41 316.586 40.5332 312.825 39.5997C309.064 38.6662 305.792 37.322 303.009 35.5669C300.226 33.8119 298.063 31.7022 296.521 29.2377C294.979 26.7359 294.208 23.9353 294.208 20.8361V20.1639C294.208 16.0191 295.637 12.4344 298.496 9.40984C301.354 6.38525 305.397 4.07013 310.625 2.46448C315.89 0.821493 322.058 0 329.129 0C337.666 0 344.888 1.06421 350.792 3.19262C356.697 5.2837 361.135 8.23361 364.106 12.0423L346.561 17.1954C345.057 15.627 342.857 14.4321 339.961 13.6107C337.102 12.7518 333.492 12.3224 329.129 12.3224C323.638 12.3224 319.313 13.0319 316.153 14.4508C312.994 15.8324 311.415 17.7368 311.415 20.1639V20.8361C311.415 23.2632 312.994 25.1862 316.153 26.6052C319.313 27.9868 323.638 28.6776 329.129 28.6776C331.31 28.6776 333.567 28.5656 335.899 28.3415C338.231 28.0801 340.431 27.7254 342.499 27.2773C344.568 26.7919 346.279 26.2131 347.633 25.541H328.96V18.8197H364.106V40.1038H350.567L351.131 31.7022H350.059C348.78 33.6439 346.919 35.3056 344.474 36.6872C342.029 38.0688 339.152 39.133 335.842 39.8798C332.57 40.6266 328.997 41 325.123 41Z" fill="url(#paint1_linear_0_11)"/>
<path id="Vector_3" d="M221.398 40.1038V27.1093H247.631V13.8907H221.398V0.896182L291.353 0.896182V13.8907H265.12V27.1093H291.353V40.1038H221.398Z" fill="url(#paint2_linear_0_11)"/>
<path id="Vector_4" d="M186.399 41C181.81 41 177.184 40.7013 172.52 40.1038C167.857 39.5437 163.4 38.7969 159.15 37.8634C154.9 36.8925 151.12 35.847 147.811 34.7268L153.057 25.597C159.376 27.9495 165.393 29.4804 171.11 30.1899C176.864 30.862 182.374 31.1981 187.64 31.1981C191.551 31.1981 194.504 31.0487 196.497 30.75C198.49 30.4139 199.487 29.8912 199.487 29.1817C199.487 28.5469 198.754 28.0988 197.287 27.8374C195.858 27.5761 193.921 27.4267 191.476 27.3894C189.031 27.3147 186.305 27.24 183.296 27.1653C180.325 27.0906 177.241 26.9599 174.044 26.7732C170.884 26.5865 167.819 26.2505 164.848 25.765C161.877 25.2423 159.207 24.4955 156.837 23.5246C154.468 22.5537 152.568 21.2655 151.139 19.6598C149.748 18.0542 149.052 16.0378 149.052 13.6107C149.052 11.0715 149.842 8.92442 151.421 7.16941C153.038 5.4144 155.239 4.01413 158.022 2.96859C160.805 1.92305 163.983 1.17624 167.556 0.728155C171.167 0.242726 174.946 1.14441e-05 178.895 1.14441e-05C182.431 1.14441e-05 185.985 0.168044 189.558 0.50411C193.168 0.802833 196.666 1.23225 200.051 1.79236C203.436 2.31513 206.576 2.93125 209.472 3.64072C212.368 4.35019 214.851 5.09701 216.919 5.88116L211.673 15.0109C208.476 13.8907 204.94 12.9572 201.067 12.2104C197.23 11.4262 193.244 10.8475 189.107 10.4741C184.969 10.0633 180.87 9.85793 176.808 9.85793C170.527 9.85793 167.387 10.5114 167.387 11.8183C167.387 12.4158 168.12 12.8452 169.587 13.1066C171.054 13.368 173.009 13.536 175.454 13.6107C177.936 13.648 180.663 13.704 183.634 13.7787C186.568 13.8534 189.614 13.9841 192.774 14.1708C195.97 14.3575 199.036 14.6935 201.969 15.179C204.94 15.6644 207.611 16.3925 209.98 17.3634C212.387 18.2969 214.286 19.5478 215.678 21.1161C217.07 22.6844 217.765 24.6448 217.765 26.9973C217.765 29.5738 216.9 31.7582 215.17 33.5506C213.478 35.3429 211.165 36.7992 208.231 37.9194C205.298 39.0023 201.95 39.7864 198.189 40.2719C194.428 40.7573 190.498 41 186.399 41Z" fill="url(#paint3_linear_0_11)"/>
<path id="Vector_5" d="M74.8711 40.1038V0.896182L144.826 0.896182V12.2104H92.3598V15.6831H138.733V25.3169H92.3598V28.7896H144.826V40.1038H74.8711Z" fill="url(#paint4_linear_0_11)"/>
<path id="Vector_6" d="M0 40.1038L0 0.896182L46.7681 0.896182C51.4694 0.896182 55.5501 1.68033 59.0102 3.24864C62.5079 4.81695 65.197 7.03871 67.0776 9.91394C68.9957 12.7892 69.9547 16.2058 69.9547 20.1639V20.8361C69.9547 24.7942 68.9957 28.2108 67.0776 31.0861C65.197 33.9613 62.5079 36.1831 59.0102 37.7514C55.5501 39.3197 51.4694 40.1038 46.7681 40.1038H0ZM17.4887 27.4454H45.0757C47.069 27.4454 48.6674 26.8666 49.8709 25.709C51.0745 24.5141 51.6762 22.8898 51.6762 20.8361V20.1639C51.6762 18.1102 51.0745 16.5046 49.8709 15.347C48.6674 14.1521 47.069 13.5547 45.0757 13.5547H17.4887V27.4454Z" fill="url(#paint5_linear_0_11)"/>
</g>
<defs>
<linearGradient id="paint0_linear_0_11" x1="-3.27287" y1="20.7435" x2="436.727" y2="20.7435" gradientUnits="userSpaceOnUse">
<stop stop-color="#282828"/>
<stop offset="0.552885" stop-color="#444444"/>
<stop offset="1" stop-color="#282828"/>
</linearGradient>
<linearGradient id="paint1_linear_0_11" x1="-3.27275" y1="20.7435" x2="436.727" y2="20.7435" gradientUnits="userSpaceOnUse">
<stop stop-color="#282828"/>
<stop offset="0.552885" stop-color="#444444"/>
<stop offset="1" stop-color="#282828"/>
</linearGradient>
<linearGradient id="paint2_linear_0_11" x1="-3.27199" y1="20.7435" x2="436.728" y2="20.7435" gradientUnits="userSpaceOnUse">
<stop stop-color="#282828"/>
<stop offset="0.552885" stop-color="#444444"/>
<stop offset="1" stop-color="#282828"/>
</linearGradient>
<linearGradient id="paint3_linear_0_11" x1="-3.27247" y1="20.7435" x2="436.728" y2="20.7435" gradientUnits="userSpaceOnUse">
<stop stop-color="#282828"/>
<stop offset="0.552885" stop-color="#444444"/>
<stop offset="1" stop-color="#282828"/>
</linearGradient>
<linearGradient id="paint4_linear_0_11" x1="-3.27218" y1="20.7435" x2="436.728" y2="20.7435" gradientUnits="userSpaceOnUse">
<stop stop-color="#282828"/>
<stop offset="0.552885" stop-color="#444444"/>
<stop offset="1" stop-color="#282828"/>
</linearGradient>
<linearGradient id="paint5_linear_0_11" x1="-3.27208" y1="20.7435" x2="436.728" y2="20.7435" gradientUnits="userSpaceOnUse">
<stop stop-color="#282828"/>
<stop offset="0.552885" stop-color="#444444"/>
<stop offset="1" stop-color="#282828"/>
</linearGradient>
</defs>
</svg>
